<svg width="18" height="20" viewBox="0 0 18 20" fill="none" xmlns="http://www.w3.org/2000/svg">
<path d="M13 14.85C13.4167 14.85 13.7708 14.7042 14.0625 14.4125C14.3542 14.1208 14.5 13.7667 14.5 13.35C14.5 12.9333 14.3542 12.5792 14.0625 12.2875C13.7708 11.9958 13.4167 11.85 13 11.85C12.5833 11.85 12.2292 11.9958 11.9375 12.2875C11.6458 12.5792 11.5 12.9333 11.5 13.35C11.5 13.7667 11.6458 14.1208 11.9375 14.4125C12.2292 14.7042 12.5833 14.85 13 14.85ZM13 17.85C13.5167 17.85 13.9917 17.7292 14.425 17.4875C14.8583 17.2458 15.2083 16.925 15.475 16.525C15.1083 16.3083 14.7167 16.1417 14.3 16.025C13.8833 15.9083 13.45 15.85 13 15.85C12.55 15.85 12.1167 15.9083 11.7 16.025C11.2833 16.1417 10.8917 16.3083 10.525 16.525C10.7917 16.925 11.1417 17.2458 11.575 17.4875C12.0083 17.7292 12.4833 17.85 13 17.85ZM8 19.85C5.68333 19.2667 3.77083 17.9375 2.2625 15.8625C0.754167 13.7875 0 11.4833 0 8.95V4.225C0 3.80833 0.120833 3.43333 0.3625 3.1C0.604167 2.76667 0.916667 2.525 1.3 2.375L7.3 0.125C7.53333 0.0416667 7.76667 0 8 0C8.23333 0 8.46667 0.0416667 8.7 0.125L14.7 2.375C15.0833 2.525 15.3958 2.76667 15.6375 3.1C15.8792 3.43333 16 3.80833 16 4.225V8.525C15.6833 8.39167 15.3583 8.27083 15.025 8.1625C14.6917 8.05417 14.35 7.975 14 7.925V4.25L8 2L2 4.25V8.95C2 9.73333 2.10417 10.5167 2.3125 11.3C2.52083 12.0833 2.8125 12.8292 3.1875 13.5375C3.5625 14.2458 4.01667 14.9 4.55 15.5C5.08333 16.1 5.675 16.6 6.325 17C6.50833 17.5333 6.75 18.0417 7.05 18.525C7.35 19.0083 7.69167 19.4417 8.075 19.825C8.05833 19.825 8.04583 19.8292 8.0375 19.8375C8.02917 19.8458 8.01667 19.85 8 19.85ZM13 19.85C11.6167 19.85 10.4375 19.3625 9.4625 18.3875C8.4875 17.4125 8 16.2333 8 14.85C8 13.4667 8.4875 12.2875 9.4625 11.3125C10.4375 10.3375 11.6167 9.85 13 9.85C14.3833 9.85 15.5625 10.3375 16.5375 11.3125C17.5125 12.2875 18 13.4667 18 14.85C18 16.2333 17.5125 17.4125 16.5375 18.3875C15.5625 19.3625 14.3833 19.85 13 19.85Z" fill="black"/>
</svg>
