<svg width="494" height="208" viewBox="0 0 494 208" fill="none" xmlns="http://www.w3.org/2000/svg">
<path d="M474.323 303.057C421.611 428.84 277.152 487.765 151.109 434.9C27.0612 382.876 -32.1427 238.456 19.5218 113.927C72.0603 -12.72 216.348 -72.0011 342.708 -18.871C468.06 33.8391 526.872 177.686 474.323 303.057ZM374.496 165.207C374.497 163.606 374.728 162.306 374.45 161.141C372.969 154.929 371.896 148.549 369.718 142.58C344.881 74.5358 296.149 30.4161 229.024 7.08893C194.048 -5.06591 158.783 0.67825 127.379 20.591C78.1581 51.789 45.7964 96.2333 31.9197 152.859C12.1464 233.539 31.226 305.436 89.1896 364.167C149.066 424.834 223.071 444.75 305.447 422.057C390.642 398.592 443.949 341.286 464.174 255.448C478.805 193.347 466.779 134.7 430.488 82.1679C387.99 20.6443 328.12 -10.5535 253.808 -14.7037C251.844 -14.8111 249.852 -14.2984 245.83 -13.8407C258.426 -7.46814 269.183 -2.76069 279.215 3.17422C312.304 22.7521 341.277 47.0441 363.824 78.5829C389.348 114.28 400.591 154.661 403.306 197.863C405.263 229.071 398.758 258.742 383.333 285.718C341.05 359.628 249.102 385.73 173.621 346.414C100.17 308.157 71.0679 217.789 102.863 146.541C114.524 120.407 131.455 98.8797 154.113 81.7595C165.65 73.0416 168.824 72.9773 179.579 82.2291C191.565 92.5367 203.1 103.394 214.388 114.46C218.016 118.018 220.096 118.21 224.624 115.686C245.595 104.017 266.776 92.6767 288.218 81.9068C297.999 76.9932 304.439 79.776 307.864 90.3651C315.26 113.194 321.74 136.326 328.859 159.244C329.586 161.593 332.094 165.067 333.871 165.132C347.112 165.565 360.355 165.27 374.496 165.207ZM163.906 312.389C164.65 311.819 165.387 311.246 166.135 310.668C164.365 304.594 162.444 298.563 160.855 292.439C151.58 256.615 149.172 220.967 163.482 185.665C170.726 167.801 182.078 152.833 195.554 139.4C199.521 135.451 199.951 132.606 195.746 128.772C188.018 121.725 180.316 114.636 173.018 107.155C168.441 102.462 165.23 102.787 160.311 107.06C105.769 154.432 98.3023 235.868 143.867 291.911C149.867 299.287 157.195 305.589 163.906 312.389ZM230.04 338.434C232.501 339.46 233.581 340.239 234.721 340.341C317.754 347.772 386.836 278.231 379.421 196.203C378.999 191.544 377.015 189.907 372.836 189.783C361.883 189.468 350.922 189.301 339.974 188.738C333.988 188.43 332.672 190.861 332.04 196.682C330.342 212.33 329.399 228.471 324.655 243.304C311.953 283.04 282.511 308.671 247.577 328.864C242.147 332.017 236.555 334.897 230.04 338.434ZM307.092 166.872C301.443 147.058 295.837 127.376 289.654 105.684C269.577 116.872 251.718 126.832 234.223 136.579C242.916 153.037 250.611 167.604 258.066 181.723C273.874 176.939 289.461 172.213 307.092 166.872ZM182.527 278.537C183.554 277.204 184.226 276.701 184.378 276.08C191.963 245.097 207.125 218.839 232.256 198.686C233.508 197.687 234.479 194.996 234.077 193.486C230.324 179.336 223.692 166.547 215.424 154.463C181.861 180.342 168.42 228.61 182.527 278.537ZM307.294 191.309C294.276 196.119 282.177 200.662 270.008 205.034C265.051 206.818 263.949 209.952 264.384 215.07C266.855 243.957 260.35 270.836 245.439 295.704C244.145 297.869 243.25 300.271 241.452 304.093C287.761 278.556 312.693 234.643 307.294 191.309ZM203.813 310.244C224.626 292.666 244.454 245.984 237.416 228.392C215.355 250.839 206.374 278.242 203.813 310.244Z" fill="#0B5C45"/>
</svg>
