<svg width="338" height="338" viewBox="0 0 338 338" fill="none" xmlns="http://www.w3.org/2000/svg">
<path d="M338 169.141C337.831 262.727 261.897 338.197 168.105 338C75.7993 337.808 0.163545 261.972 0.000281943 169.457C-0.168611 75.3689 75.5629 -0.280882 169.625 0.000783991C262.938 0.28245 338.174 75.859 338 169.141ZM238.37 108.194C237.948 107.18 237.751 106.296 237.266 105.631C234.688 102.088 232.324 98.3303 229.368 95.1249C195.668 58.5872 153.152 43.5125 104.477 46.4644C79.1153 48.0023 58.2964 60.9532 43.6647 81.8585C20.7291 114.616 11.9691 151.312 18.1337 190.841C26.9162 247.162 57.9868 287.66 110.208 309.551C164.153 332.164 216.284 325.235 262.465 289.108C310.228 251.748 328.857 201.375 318.999 141.667C311.866 98.4711 288.762 64.5022 251.904 40.8141C208.74 13.0701 162.582 9.12112 114.419 26.1168C113.147 26.5675 112.021 27.4181 109.595 28.7701C119.255 29.4799 127.312 29.6207 135.233 30.7305C161.36 34.3922 186.126 42.1267 208.735 56.148C234.328 72.0171 252.112 94.6236 265.241 121.269C274.721 140.518 278.437 161.029 275.791 182.188C268.528 240.166 217.185 280.979 158.996 276.011C102.372 271.177 60.0754 221.627 61.3984 168.105C61.8826 148.472 66.9212 130.367 76.7508 113.54C81.7556 104.972 83.7486 104.093 93.0039 107.113C103.318 110.476 113.491 114.306 123.562 118.334C126.799 119.63 128.167 119.202 130.369 116.408C140.57 103.479 150.99 90.7028 161.726 78.2194C166.624 72.5241 171.438 72.586 176.403 78.3883C187.117 90.8943 197.329 103.834 207.89 116.47C208.971 117.765 211.477 119.303 212.619 118.875C221.12 115.653 229.43 111.969 238.37 108.194ZM143.857 257.026C144.178 256.469 144.494 255.911 144.815 255.348C142.09 251.968 139.281 248.655 136.657 245.196C121.322 224.956 110.383 203.014 110.124 176.876C109.994 163.649 113.232 151.171 118.22 139.104C119.689 135.555 119.21 133.64 115.534 132.322C108.778 129.899 102.028 127.443 95.4303 124.632C91.2924 122.869 89.3445 123.922 87.3572 127.928C65.3224 172.335 82.099 225.885 125.758 249.348C131.506 252.435 137.811 254.491 143.857 257.026ZM192.622 256.057C194.452 256.057 195.342 256.266 196.09 256.029C250.643 238.808 276.033 176.521 249.674 126.525C248.177 123.686 246.488 123.173 243.808 124.198C236.788 126.891 229.801 129.68 222.719 132.215C218.846 133.6 218.654 135.488 219.792 139.341C222.849 149.7 226.514 160.173 227.426 170.82C229.875 199.341 217.996 223.35 201.202 245.365C198.596 248.796 195.815 252.097 192.622 256.057ZM196.119 127.049C187.308 115.991 178.559 105.006 168.916 92.8998C159.154 105.287 150.472 116.312 141.966 127.105C151.818 135.234 160.538 142.428 168.989 149.402C177.737 142.197 186.362 135.088 196.119 127.049ZM146.712 230.668C147.01 229.553 147.303 229.057 147.235 228.623C143.857 206.997 146.526 186.362 157.121 166.961C157.65 165.998 157.555 164.037 156.902 163.187C150.788 155.215 143.21 148.867 134.782 143.397C120.359 168.651 124.592 202.772 146.712 230.668ZM202.7 142.473C195.724 148.957 189.261 155.03 182.708 161.012C180.04 163.451 180.169 165.727 181.796 168.854C190.99 186.497 193.968 205.239 191.091 224.928C190.843 226.64 190.911 228.398 190.782 231.293C213.368 202.89 217.562 168.493 202.7 142.473ZM168.566 245.129C177.107 228.499 177.338 193.697 168.234 184.413C160.189 204.456 161.738 224.184 168.566 245.129Z" fill="#00583F"/>
</svg>
