<svg width="153" height="37" viewBox="0 0 153 37" fill="none" xmlns="http://www.w3.org/2000/svg">
<g clip-path="url(#clip0_942_1698)">
<path d="M49.1688 27.6009C47.4004 27.6009 45.9126 27.2045 44.7053 26.4119C43.4981 25.6191 42.6479 24.5409 42.1548 23.1771L45.1644 21.4127C45.8615 23.2367 47.2304 24.1488 49.2708 24.1488C50.257 24.1488 50.9796 23.9698 51.4387 23.6118C51.8978 23.2538 52.1274 22.802 52.1274 22.2565C52.1274 21.6258 51.8468 21.1356 51.2857 20.7862C50.7246 20.4367 49.7214 20.0574 48.2761 19.6483C47.4769 19.4096 46.801 19.1709 46.2484 18.9323C45.6958 18.6936 45.1432 18.374 44.5906 17.9733C44.0379 17.5728 43.6171 17.0656 43.328 16.4519C43.039 15.8382 42.8945 15.1222 42.8945 14.3039C42.8945 12.6844 43.4683 11.3931 44.616 10.4298C45.7638 9.46667 47.1453 8.98509 48.7607 8.98509C50.2059 8.98509 51.477 9.33882 52.5737 10.0463C53.6705 10.7538 54.5249 11.7383 55.137 12.9998L52.1784 14.7131C51.4643 13.1788 50.325 12.4116 48.7607 12.4116C48.0295 12.4116 47.4556 12.5779 47.0391 12.9103C46.6225 13.2427 46.4142 13.6731 46.4142 14.2016C46.4142 14.7641 46.648 15.2202 47.1156 15.5697C47.5832 15.9192 48.4801 16.2984 49.8064 16.7076C50.3505 16.8781 50.7629 17.0102 51.0434 17.104C51.3239 17.1977 51.7065 17.3426 52.1911 17.5386C52.6757 17.7347 53.0498 17.918 53.3134 18.0884C53.5769 18.2589 53.8787 18.489 54.2188 18.7789C54.5589 19.0687 54.8182 19.367 54.9967 19.6738C55.1752 19.9807 55.3283 20.3515 55.4558 20.7862C55.5833 21.2209 55.6471 21.694 55.6471 22.2054C55.6471 23.859 55.0477 25.1716 53.849 26.1433C52.6502 27.1151 51.0901 27.6009 49.1688 27.6009Z" fill="#1A634E"/>
<path d="M63.9617 27.6009C62.0404 27.6009 60.4377 26.9531 59.1542 25.6575C57.8704 24.3619 57.2285 22.7594 57.2285 20.8501C57.2285 18.9408 57.8704 17.3384 59.1542 16.0427C60.4377 14.7471 62.0404 14.0993 63.9617 14.0993C65.203 14.0993 66.3342 14.3976 67.3541 14.9943C68.3745 15.591 69.1479 16.3922 69.6754 17.398L66.8438 19.0601C66.589 18.5316 66.202 18.114 65.6835 17.8072C65.1649 17.5003 64.5826 17.3468 63.9366 17.3468C62.9501 17.3468 62.1339 17.675 61.4879 18.3314C60.8419 18.9877 60.5186 19.8273 60.5186 20.8501C60.5186 21.8559 60.8419 22.687 61.4879 23.3433C62.1339 23.9996 62.9501 24.3278 63.9366 24.3278C64.5993 24.3278 65.1905 24.1786 65.7091 23.8803C66.2276 23.582 66.6146 23.1686 66.8694 22.6401L69.726 24.2767C69.1652 25.2825 68.3745 26.0879 67.3541 26.6931C66.3342 27.2983 65.203 27.6009 63.9617 27.6009Z" fill="#1A634E"/>
<path d="M74.5971 16.6564C74.9037 15.8382 75.4092 15.2245 76.1153 14.8153C76.8208 14.4062 77.6073 14.2016 78.4742 14.2016V17.8839C77.471 17.7645 76.5744 17.9691 75.7837 18.4975C74.9931 19.026 74.5971 19.904 74.5971 21.1314V27.2429H71.3071V14.4573H74.5971V16.6564Z" fill="#1A634E"/>
<path d="M82.4274 22.2054C82.8697 23.8079 84.0682 24.6091 86.024 24.6091C87.282 24.6091 88.234 24.1829 88.8806 23.3305L91.5329 24.8648C90.2749 26.6889 88.4216 27.6009 85.9728 27.6009C83.8646 27.6009 82.1726 26.9616 80.8973 25.683C79.622 24.4045 78.9844 22.7935 78.9844 20.8501C78.9844 18.9237 79.6137 17.3171 80.8717 16.0299C82.1303 14.7428 83.7455 14.0993 85.718 14.0993C87.588 14.0993 89.1312 14.7471 90.347 16.0427C91.5627 17.3384 92.1706 18.9408 92.1706 20.8501C92.1706 21.2763 92.1283 21.7281 92.0432 22.2054H82.4274ZM82.3768 19.6483H88.8806C88.6936 18.7789 88.3066 18.1311 87.7202 17.7049C87.1332 17.2787 86.4658 17.0656 85.718 17.0656C84.8333 17.0656 84.1022 17.2914 83.5241 17.7432C82.946 18.195 82.5637 18.83 82.3768 19.6483Z" fill="#1A634E"/>
<path d="M96.8891 22.2054C97.3314 23.8079 98.5299 24.6091 100.486 24.6091C101.744 24.6091 102.696 24.1829 103.342 23.3305L105.995 24.8648C104.737 26.6889 102.883 27.6009 100.434 27.6009C98.3263 27.6009 96.6342 26.9616 95.359 25.683C94.0837 24.4045 93.446 22.7935 93.446 20.8501C93.446 18.9237 94.0753 17.3171 95.3334 16.0299C96.592 14.7428 98.2072 14.0993 100.18 14.0993C102.05 14.0993 103.593 14.7471 104.809 16.0427C106.024 17.3384 106.632 18.9408 106.632 20.8501C106.632 21.2763 106.59 21.7281 106.505 22.2054H96.8891ZM96.8384 19.6483H103.342C103.155 18.7789 102.768 18.1311 102.182 17.7049C101.595 17.2787 100.927 17.0656 100.18 17.0656C99.2955 17.0656 98.5638 17.2914 97.9857 17.7432C97.4076 18.195 97.0254 18.83 96.8384 19.6483Z" fill="#1A634E"/>
<path d="M115.763 14.0993C117.157 14.0993 118.309 14.5681 119.219 15.5057C120.129 16.4434 120.584 17.7389 120.584 19.3925V27.2429H117.294V19.8017C117.294 18.9493 117.064 18.2972 116.605 17.8455C116.146 17.3937 115.534 17.1679 114.769 17.1679C113.918 17.1679 113.238 17.4321 112.728 17.9606C112.218 18.489 111.963 19.2818 111.963 20.3387V27.2429H108.673V14.4573H111.963V15.8893C112.762 14.696 114.029 14.0993 115.763 14.0993Z" fill="#1A634E"/>
<path d="M126.425 16.6564C126.731 15.8382 127.236 15.2245 127.942 14.8153C128.648 14.4062 129.434 14.2016 130.301 14.2016V17.8839C129.298 17.7645 128.401 17.9691 127.611 18.4975C126.82 19.026 126.425 19.904 126.425 21.1314V27.2429H123.134V14.4573H126.425V16.6564Z" fill="#1A634E"/>
<path d="M143.847 27.2429L142.712 24.0209H135.378L134.307 27.2429H130.506L136.755 9.34311H141.116L147.415 27.2429H143.847ZM136.524 20.7223H141.549L138.973 13.4089L136.524 20.7223Z" fill="#1A634E"/>
<path d="M148.894 9.34311H152.414V27.2429H148.894V9.34311Z" fill="#1A634E"/>
<path fill-rule="evenodd" clip-rule="evenodd" d="M0.00113957 18.4889C0.000348849 18.5495 0 18.6095 0 18.6696L0.00416293 18.6787C0.208681 28.3206 8.08045 36.0857 17.7469 36.0857C27.5417 36.0857 35.4938 28.1131 35.4938 18.293C35.4938 8.47292 27.5417 0.500237 17.7469 0.500237C7.95209 0.500237 0 8.47292 0 18.293C0 18.3587 0.000348849 18.4245 0.00113957 18.4889ZM17.7092 2.39935C14.5082 2.40687 11.5287 3.36759 9.03786 5.01374C10.8793 4.21072 12.9062 3.76519 15.0255 3.76519C22.1276 3.76519 28.0731 8.76904 29.5429 15.4492L29.5667 15.4554L29.6953 16.1457C29.8307 16.8717 29.9016 17.6204 29.9016 18.3855C29.9016 18.5523 29.8982 18.7184 29.8915 18.8835L29.8397 19.619C29.3151 24.8187 25.5121 29.053 20.537 30.2068L20.2331 30.2772L20.0506 30.3099C19.3198 30.4516 18.5655 30.524 17.7943 30.524C17.0232 30.524 16.2688 30.4516 15.5381 30.3099L15.3556 30.2772L14.77 30.1416L14.1957 29.9779L13.9664 29.9001C9.15736 28.2957 5.68707 23.7437 5.68707 18.3855C5.68707 17.6204 5.75793 16.8717 5.8933 16.1457L6.01149 15.5116L6.02387 15.4452L6.91568 15.2222C7.85517 14.9874 8.83788 14.8627 9.84947 14.8627C10.9099 14.8627 11.9387 14.9997 12.9195 15.2581C13.9352 13.5165 15.3722 12.0515 17.0925 11.008L17.3198 10.866L17.7943 10.5906L18.2689 10.866L18.4961 11.008C20.2148 12.054 21.6525 13.5176 22.6669 15.2588L22.7088 15.3309L22.6692 15.2581C23.6499 14.9997 24.6787 14.8627 25.7392 14.8627C26.3263 14.8627 26.9037 14.9047 27.4687 14.986C25.883 9.59988 20.9091 5.66424 15.0255 5.66424C7.92488 5.66424 1.99223 11.3966 1.89541 18.4923C2.00228 27.1728 9.06406 34.1866 17.7469 34.1866C26.4963 34.1866 33.5996 27.0649 33.5996 18.293C33.5996 9.52102 26.4963 2.39935 17.7469 2.39935H17.7092ZM21.8572 24.7506C22.2272 23.6947 22.4273 22.5595 22.4273 21.3779C22.4273 20.0414 22.1713 18.7645 21.7053 17.5942C21.6389 17.427 21.6356 17.428 21.7015 17.5959C20.8561 17.9612 20.0696 18.4378 19.362 19.009C19.3017 19.0568 19.2395 19.1083 19.176 19.1629C19.1591 19.1772 19.1421 19.1917 19.1252 19.2062L19.1256 19.2066C18.8263 19.4685 18.5059 19.7887 18.2464 20.0689C18.0598 20.2704 17.9044 20.4512 17.7986 20.5779L17.7943 20.5727L17.7963 20.5751C17.7478 20.635 17.7 20.6953 17.6531 20.7561L17.6466 20.7642L17.6467 20.7643C16.3158 22.4895 15.5261 24.6536 15.5261 27.0012C15.5261 27.3274 15.5414 27.6501 15.5719 27.9684C15.3655 27.7268 15.3667 27.7265 15.5719 27.9684L16.0094 28.4655C16.5892 28.5714 17.1855 28.6249 17.7943 28.6249C18.4031 28.6249 18.9995 28.5714 19.5793 28.4655L19.8656 28.1401L19.8659 28.1411C20.6831 27.2781 21.358 26.1678 21.858 24.7536L21.8572 24.7506ZM12.8935 27.4488L12.945 27.5381L12.8673 27.4035L12.8418 27.3583L12.8935 27.4488ZM9.81464 16.7618C9.09573 16.7642 8.39409 16.8412 7.71799 16.9899L7.68531 16.9971C7.61303 17.4502 7.58124 17.9142 7.58124 18.3855C7.58124 22.2284 9.69735 25.5796 12.8256 27.3293L12.8288 27.3311C13.017 27.4368 13.0151 27.4353 12.8256 27.3293C11.8324 25.5719 11.2672 23.5405 11.2672 21.3779C11.2672 19.8378 11.5538 18.3643 12.0826 17.0106C12.2723 17.053 12.46 17.1007 12.6456 17.1536V17.1523C12.46 17.0997 12.2723 17.0524 12.0826 17.0106C11.3641 16.8467 10.6167 16.7617 9.84947 16.7617L9.81464 16.7618ZM27.8904 16.9941C27.1974 16.8403 26.4774 16.7617 25.7392 16.7617C24.9722 16.7617 24.2248 16.8467 23.5064 17.0106C24.0348 18.3643 24.3215 19.8378 24.3215 21.3779C24.3215 23.5405 23.7562 25.5719 22.7631 27.3293C25.7665 25.6495 27.8369 22.4933 27.9973 18.843V18.6696C27.9973 18.1018 27.9609 17.5425 27.8904 16.9941ZM17.7943 12.8059L17.7907 12.8082C17.712 12.8599 17.6339 12.9126 17.5566 12.9664C17.4045 13.0722 17.2553 13.1822 17.1092 13.2962C16.7603 13.5682 16.4289 13.863 16.118 14.1781C15.8072 14.4932 15.5168 14.8286 15.2495 15.1816C15.1332 15.3351 15.0213 15.4919 14.914 15.6518C14.859 15.7337 14.8053 15.8164 14.7527 15.8998L14.7505 15.9034L14.7521 15.9042L14.721 15.9541L14.7505 15.9034C14.6984 15.9852 14.6475 16.0676 14.5978 16.1509H14.6013C14.383 16.5177 14.1789 16.9055 13.9978 17.3269V17.3263C13.9596 17.4155 13.9227 17.5054 13.8872 17.5959C13.7702 17.5452 13.652 17.4966 13.5329 17.4502V17.451C13.6521 17.4971 13.7702 17.5455 13.8872 17.5959C13.4172 18.7651 13.1613 20.0418 13.1613 21.3779C13.1613 22.6175 13.3815 23.8059 13.7871 24.9054L13.8065 24.9576C14.1696 22.8078 15.0975 20.8497 16.4361 19.2462L16.4774 19.1968C16.8703 18.7276 17.3129 18.278 17.7949 17.8495L17.834 17.8149C18.7294 17.037 19.7409 16.3907 20.8382 15.9034C20.8882 15.9821 20.8938 15.9837 20.8515 15.916L20.8424 15.9015C20.0587 14.664 19.0174 13.607 17.7943 12.8059Z" fill="#EAB600"/>
</g>
<defs>
<clipPath id="clip0_942_1698">
<rect width="152.414" height="35.5857" fill="white" transform="translate(0 0.5)"/>
</clipPath>
</defs>
</svg>
