<svg width="19" height="20" viewBox="0 0 19 20" fill="none" xmlns="http://www.w3.org/2000/svg">
<path d="M9.64759 17.409C5.56333 17.409 2.2385 14.0842 2.2385 9.99989C2.2385 5.91563 5.56333 2.5908 9.64759 2.5908C13.7319 2.5908 17.0567 5.91563 17.0567 9.99989C17.0567 14.0842 13.7319 17.409 9.64759 17.409ZM9.64759 19.2613C14.7599 19.2613 18.909 15.1122 18.909 9.99989C18.909 4.88762 14.7599 0.738525 9.64759 0.738525C4.53532 0.738525 0.38623 4.88762 0.38623 9.99989C0.38623 15.1122 4.53532 19.2613 9.64759 19.2613ZM8.72146 9.99989V13.7044H10.5737V9.99989H13.3521L9.64759 6.29534L5.94305 9.99989H8.72146Z" fill="#1A634E"/>
</svg>
